<?xml version="1.0" encoding="UTF-8" standalone="no"?><!DOCTYPE svg PUBLIC "-//W3C//DTD SVG 1.1//EN" "http://www.w3.org/Graphics/SVG/1.1/DTD/svg11.dtd"><svg width="100%" height="100%" viewBox="0 0 830 495" version="1.1" xmlns="http://www.w3.org/2000/svg" xmlns:xlink="http://www.w3.org/1999/xlink" xml:space="preserve" xmlns:serif="http://www.serif.com/" style="fill-rule:evenodd;clip-rule:evenodd;stroke-linecap:round;stroke-linejoin:round;"><g><path d="M546.495,314.35c17.359,-18.574 -2.617,-52.274 -1.19,-100.23c1.424,-47.862 33.75,-64.176 33.75,-64.176c-0,-0 -10.328,4.037 -6.982,27.381c2.838,19.798 9.131,42.818 23.505,55.577c14.786,12.227 39.116,45.618 30.143,63.456c18.092,-6.143 46.271,8.397 67.086,27.672c21.721,20.557 35.629,30.454 50.689,35.267c21.623,6.911 37.47,0.815 37.47,0.815c-24.747,21.36 -72.188,21.674 -103.15,15.92c-30.294,-5.63 -47.194,-22.113 -74.752,-15.8c-34.973,11.952 -92.855,66.093 -181.52,77.64c-88.669,11.547 -295.92,-12.438 -321.06,-38.871c-25.135,-26.432 -7.014,-34.19 -8.667,-33c16.333,6.803 73.333,21.667 141.67,12.333c-43.333,10 -142.43,-30.478 -142.22,-32.01c0.322,0.109 20.894,-149.47 63.964,-169.84c43.07,-20.372 170.33,3.316 245.61,47.342c89.276,52.208 125.84,111.73 145.65,90.527l-0,-0.01l0.004,0.007Z" style="fill:#2496ed;fill-rule:nonzero;stroke:#fff;stroke-width:15px;"/><path d="M291.815,349c0.002,5.426 -6,16.333 -16.234,16.333c-14.433,-0 -18.768,-11.575 -18.766,-17c-0,-9.333 11.062,-13.666 17.5,-13.666c6.44,0.01 17.5,6.34 17.5,14.34l-0,-0.007Z" style="fill:#2496ed;fill-rule:nonzero;stroke:#fff;stroke-width:15px;"/></g><g><path d="M458.209,80.601l-8.458,-2.268l-11.111,41.436l8.458,2.268l11.111,-41.436Z" style="fill:#4d4d4d;"/><path d="M446.006,58.29l-8.458,-2.269l-15.875,59.198l8.458,2.268l15.875,-59.197Z" style="fill:#4d4d4d;"/></g><path d="M462.098,132.026l-10.302,38.416l-63.435,-17.012l10.302,-38.416c1.45,-5.405 7.016,-8.617 12.421,-7.168l43.846,11.759c5.405,1.449 8.617,7.016 7.168,12.421Z" style="fill:#808080;fill-rule:nonzero;"/><path d="M426.732,112.042l-15.648,-4.196c-5.405,-1.449 -10.971,1.763 -12.421,7.168l-10.302,38.416l15.647,4.197l10.302,-38.417c1.45,-5.404 7.017,-8.617 12.422,-7.168Z" style="fill:#666;fill-rule:nonzero;"/><g><path d="M460.869,136.609l-26.271,-7.045l-3.402,12.687l26.27,7.045l3.403,-12.687Z" style="fill:#4d4d4d;"/><path d="M166.801,92.201l-12.928,48.21l-12.453,7.287c-10.053,5.88 -22.186,-3.375 -19.17,-14.624l11.376,-42.419c1.015,-3.787 4.909,-6.034 8.696,-5.018l24.479,6.564Z" style="fill:#4d4d4d;fill-rule:nonzero;"/></g><path d="M502.373,220.152l-345.069,-92.538l9.497,-35.413l309.655,83.04c17.398,4.666 28.498,21.088 27.052,38.415c-0.18,2.155 -0.554,4.331 -1.135,6.496Z" style="fill:#666;fill-rule:nonzero;"/><path d="M502.373,220.152c-0.576,2.148 -1.34,4.219 -2.276,6.189c-1.95,4.128 -4.634,7.814 -7.884,10.905c-4.814,4.566 -10.858,7.832 -17.59,9.272c-14.12,3.022 -28.506,4.332 -42.842,3.969c-14.334,-0.371 -28.624,-2.427 -42.571,-6.167l-3.891,-1.043c-79.445,-21.305 -155.2,-54.549 -224.681,-98.576l-6.765,-4.29l3.432,-12.797l345.068,92.538Z" style="fill:#4d4d4d;fill-rule:nonzero;"/><path d="M502.373,220.152c-0.576,2.148 -1.34,4.219 -2.276,6.189l-344.494,-92.383l3.402,-12.687l344.502,92.386c-0.179,2.154 -0.553,4.33 -1.134,6.495Z" style="fill:#999;fill-rule:nonzero;"/></svg>